# ASF file generated by Tido's ASF writer for MATLAB.
:version 1.10
:name VICON
:units
  mass 1
  length 0.45000000000000001
  angle deg
:documentation
   .ast/.asf automatically generated from VICON data using
   VICON BodyBuilder and BodyLanguage model FoxedUp or BRILLIANT.MOD
:root
  axis xyz
  order tx ty tz rx ry rz 
  position 0 0 0
  orientation 0 0 0
:bonedata
  begin
    id 1
    name lhipjoint
    direction 0.44017800000000001 -0.82263900000000001 0.359871
    length 1.1390085000000001
    axis 0 0 0 xyz
  end
  begin
    id 2
    name lfemur
    direction 0.34201999999999999 -0.939693 0
    length 3.5465939999999998
    axis 0 0 20 xyz
    dof rx ry rz 
    limits (-160 20)
           (-70 70)
           (-60 70)
  end
  begin
    id 3
    name ltibia
    direction 0.34201999999999999 -0.939693 0
    length 3.7970234999999999
    axis 0 0 20 xyz
    dof rx 
    limits (-10 170)
  end
  begin
    id 4
    name lfoot
    direction 0.088635099999999994 -0.24352299999999999 0.96583699999999995
    length 1.1853629999999999
    axis -90 7.62852e-016 20 xyz
    dof rx rz 
    limits (-45 90)
           (-70 20)
  end
  begin
    id 5
    name ltoes
    direction 1.53703e-011 -4.2171700000000001e-011 1
    length 0.59142150000000004
    axis -90 7.62852e-016 20 xyz
    dof rx 
    limits (-90 20)
  end
  begin
    id 6
    name rhipjoint
    direction -0.399779 -0.83977299999999999 0.367367
    length 1.115766
    axis 0 0 0 xyz
  end
  begin
    id 7
    name rfemur
    direction -0.34201999999999999 -0.939693 0
    length 3.4866269999999999
    axis 0 0 -20 xyz
    dof rx ry rz 
    limits (-160 20)
           (-70 70)
           (-70 60)
  end
  begin
    id 8
    name rtibia
    direction -0.34201999999999999 -0.939693 0
    length 3.9349440000000002
    axis 0 0 -20 xyz
    dof rx 
    limits (-10 170)
  end
  begin
    id 9
    name rfoot
    direction -0.108514 -0.29813899999999999 0.94833400000000001
    length 1.1974590000000001
    axis -90 -7.62852e-016 -20 xyz
    dof rx rz 
    limits (-45 90)
           (-20 70)
  end
  begin
    id 10
    name rtoes
    direction -1.5339199999999999e-011 -4.2207699999999999e-011 1
    length 0.59392350000000005
    axis -90 -7.62852e-016 -20 xyz
    dof rx 
    limits (-90 20)
  end
  begin
    id 11
    name lowerback
    direction 0.011325699999999999 0.99986600000000003 0.0118602
    length 1.164123
    axis 0 0 0 xyz
    dof rx ry rz 
    limits (-20 45)
           (-30 30)
           (-30 30)
  end
  begin
    id 12
    name upperback
    direction -0.016474699999999998 0.99519299999999999 -0.096537499999999998
    length 1.135656
    axis 0 0 0 xyz
    dof rx ry rz 
    limits (-20 45)
           (-30 30)
           (-30 30)
  end
  begin
    id 13
    name thorax
    direction -0.019430099999999999 0.99433000000000005 -0.10455200000000001
    length 1.1524455
    axis 0 0 0 xyz
    dof rx ry rz 
    limits (-20 45)
           (-30 30)
           (-30 30)
  end
  begin
    id 14
    name lowerneck
    direction 0.014854300000000001 0.995587 -0.092657000000000003
    length 0.772119
    axis 0 0 0 xyz
    dof rx ry rz 
    limits (-20 45)
           (-30 30)
           (-30 30)
  end
  begin
    id 15
    name upperneck
    direction -0.0135467 0.99365599999999998 -0.111639
    length 0.76021650000000007
    axis 0 0 0 xyz
    dof rx ry rz 
    limits (-20 45)
           (-30 30)
           (-30 30)
  end
  begin
    id 16
    name head
    direction -0.0061534900000000002 0.99954699999999996 -0.029447999999999998
    length 0.78578999999999999
    axis 0 0 0 xyz
    dof rx ry rz 
    limits (-20 45)
           (-30 30)
           (-30 30)
  end
  begin
    id 17
    name lclavicle
    direction 0.98826700000000001 0.14988499999999999 0.029371299999999999
    length 2.012499
    axis 0 0 0 xyz
    dof ry rz 
    limits (-20 10)
           (0 20)
  end
  begin
    id 18
    name lhumerus
    direction 1 -4.4898600000000001e-011 -1.1483300000000001e-027
    length 2.4171659999999999
    axis 180 -30 -90 xyz
    dof rx ry rz 
    limits (-60 90)
           (-90 90)
           (-90 90)
  end
  begin
    id 19
    name lradius
    direction 0.99999800000000005 0.00170963 -0.00098705499999999992
    length 1.773954
    axis 180 -30 -90 xyz
    dof rx 
    limits (-10 170)
  end
  begin
    id 20
    name lwrist
    direction 0.99999800000000005 7.53149e-005 -0.00194706
    length 0.88697700000000002
    axis 4.6505600000000004e-015 90 90 xyz
    dof ry 
    limits (-180 0)
  end
  begin
    id 21
    name lhand
    direction 1 -4.48973e-011 -1.3174599999999999e-026
    length 0.5306265
    axis 8.4064999999999996e-015 90 90 xyz
    dof rx rz 
    limits (-90 90)
           (-45 45)
  end
  begin
    id 22
    name lfingers
    direction 1 -4.49107e-011 -2.6349199999999999e-026
    length 0.42780555000000003
    axis 1.6812999999999999e-014 90 90 xyz
    dof rx 
    limits (0 90)
  end
  begin
    id 23
    name lthumb
    direction 0.70710700000000004 -6.3504800000000005e-011 0.70710700000000004
    length 0.6142455
    axis -90 45 2.8529899999999998e-015 xyz
    dof rx rz 
    limits (-45 45)
           (-45 45)
  end
  begin
    id 24
    name rclavicle
    direction -0.996699 0.064289499999999999 -0.049572499999999999
    length 2.0817494999999999
    axis 0 0 0 xyz
    dof ry rz 
    limits (-10 20)
           (-20 0)
  end
  begin
    id 25
    name rhumerus
    direction -1 -4.4891899999999998e-011 -2.4105900000000001e-027
    length 2.474145
    axis 180 30 90 xyz
    dof rx ry rz 
    limits (-90 60)
           (-90 90)
           (-90 90)
  end
  begin
    id 26
    name rradius
    direction -0.99999899999999997 0.0011810099999999999 -0.00068185800000000003
    length 1.5677145000000001
    axis 180 30 90 xyz
    dof rx 
    limits (-10 170)
  end
  begin
    id 27
    name rwrist
    direction -0.99999899999999997 0.000321823 -0.00132288
    length 0.78385499999999997
    axis 4.6505600000000004e-015 -90 -90 xyz
    dof ry 
    limits (-180 0)
  end
  begin
    id 28
    name rhand
    direction -1 -4.4902199999999998e-011 -1.3174599999999999e-026
    length 0.60719400000000001
    axis 8.4064999999999996e-015 -90 -90 xyz
    dof rx rz 
    limits (-90 90)
           (-45 45)
  end
  begin
    id 29
    name rfingers
    direction -1 -4.4917800000000002e-011 -2.6349199999999999e-026
    length 0.48953249999999998
    axis 1.6812999999999999e-014 -90 -90 xyz
    dof rx 
    limits (0 90)
  end
  begin
    id 30
    name rthumb
    direction -0.70710700000000004 -6.3471300000000002e-011 0.70710700000000004
    length 0.70287750000000004
    axis -90 -45 -2.8529899999999998e-015 xyz
    dof rx rz 
    limits (-45 45)
           (-45 45)
  end
:hierarchy
begin
  root lhipjoint rhipjoint lowerback 
  lhipjoint lfemur 
  lfemur ltibia 
  ltibia lfoot 
  lfoot ltoes 
  rhipjoint rfemur 
  rfemur rtibia 
  rtibia rfoot 
  rfoot rtoes 
  lowerback upperback 
  upperback thorax 
  thorax lowerneck lclavicle rclavicle 
  lowerneck upperneck 
  upperneck head 
  lclavicle lhumerus 
  lhumerus lradius 
  lradius lwrist 
  lwrist lhand lthumb 
  lhand lfingers 
  rclavicle rhumerus 
  rhumerus rradius 
  rradius rwrist 
  rwrist rhand rthumb 
  rhand rfingers 
end

# AMC file generated by Tido's AMC writer for MATLAB on 27-Nov-2005 at 18:24:20
# Corresponding ASF file: S:\data_MoCap\MoCaDaDB\HDM\Bonn_ASF_AMC_Use IK_on\björn\bjorn.asf
# Number of frames: 542
# Sampling rate: 120
:fully-specified
:degrees
85
root -7.1305199999999997 8.2498950000000004 -7.761285 182.34899999999999 15.571999999999999 535.98900000000003 
lfemur 25.107900000000001 9.5693999999999999 -13.563599999999999 
ltibia 7.0380200000000004 
lfoot -7.2354200000000004 -2.1861199999999998 
ltoes -36.313699999999997 
rfemur -43.751199999999997 -16.452100000000002 22.009799999999998 
rtibia 40.302300000000002 
rfoot -3.7136399999999998 1.6415999999999999 
rtoes 1.44171 
lowerback -3.0020899999999999 -5.8854300000000004 -7.2989300000000004 
upperback 7.6700999999999997 -6.5775300000000003 -2.89059 
thorax 10.415100000000001 -3.4054799999999998 0.15862999999999999 
lowerneck 6.7567700000000004 -16.847100000000001 -2.2683399999999998 
upperneck 4.4662199999999999 -22.734200000000001 16.564 
head 2.4596100000000001 -11.147500000000001 4.91066 
lclavicle -8.7465300000000005e-014 7.9513900000000002e-016 
lhumerus -30.159800000000001 3.9332699999999998 77.534899999999993 
lradius 29.494800000000001 
lwrist -15.8193 
lhand -20.5869 -3.8498700000000001 
lfingers 7.1250200000000001 
lthumb 5.7731500000000002 26.051500000000001 
rclavicle -8.7465300000000005e-014 7.9513900000000002e-016 
rhumerus -34.622500000000002 -27.784700000000001 -82.607500000000002 
rradius 20.012 
rwrist 16.549600000000002 
rhand -5.9773399999999999 10.7826 
rfingers 7.1250200000000001 
rthumb 19.854099999999999 -18.223299999999998 
86
root -7.0844849999999999 8.2691550000000014 -7.8276150000000007 182.25299999999999 16.113199999999999 536.16099999999994 
lfemur 25.0868 9.3751899999999999 -13.2105 
ltibia 8.1910799999999995 
lfoot -6.0941700000000001 -2.1242000000000001 
ltoes -37.481299999999997 
rfemur -43.116199999999999 -15.807700000000001 22.165800000000001 
rtibia 40.626100000000001 
rfoot -3.9187099999999999 1.64076 
rtoes 1.78467 
lowerback -2.9139900000000001 -5.83439 -6.9397900000000003 
upperback 7.601 -6.5817300000000003 -2.77068 
thorax 10.2463 -3.3930500000000001 0.109043 
lowerneck 6.8581599999999998 -16.935199999999998 -2.2827500000000001 
upperneck 4.4363000000000001 -22.841699999999999 16.448599999999999 
head 2.4341699999999999 -11.2113 4.8851599999999999 
lclavicle -1.2682499999999999e-013 -2.7034699999999999e-014 
lhumerus -30.483599999999999 3.8712300000000002 77.724000000000004 
lradius 28.853300000000001 
lwrist -15.8888 
lhand -20.773499999999999 -3.5687700000000002 
lfingers 7.1250200000000001 
lthumb 5.5929900000000004 26.337399999999999 
rclavicle -1.2682499999999999e-013 -2.7034699999999999e-014 
rhumerus -35.016500000000001 -28.5535 -82.095100000000002 
rradius 19.655200000000001 
rwrist 17.298500000000001 
rhand -5.6982799999999996 10.833299999999999 
rfingers 7.1250200000000001 
rthumb 20.122399999999999 -18.144600000000001 
87
root -7.038945 8.2738800000000001 -7.8915150000000001 182.12100000000001 16.691400000000002 536.35599999999999 
lfemur 24.8184 9.2059700000000007 -12.789099999999999 
ltibia 9.9799399999999991 
lfoot -5.0836399999999999 -2.2295400000000001 
ltoes -37.8596 
rfemur -42.5505 -15.166399999999999 22.367899999999999 
rtibia 40.979399999999998 
rfoot -4.1484399999999999 1.7172499999999999 
rtoes 1.2018200000000001 
lowerback -2.7785600000000001 -5.7680100000000003 -6.57165 
upperback 7.5669899999999997 -6.5620000000000003 -2.6495299999999999 
thorax 10.0871 -3.36755 0.061044800000000003 
lowerneck 6.9341900000000001 -17.019200000000001 -2.3218700000000001 
upperneck 4.3631399999999996 -22.945900000000002 16.386500000000002 
head 2.40821 -11.275 4.87662 
lclavicle -4.8105900000000003e-014 7.1562500000000004e-014 
lhumerus -30.828399999999998 3.8001900000000002 77.902299999999997 
lradius 28.288 
lwrist -16.021000000000001 
lhand -20.816400000000002 -3.3277600000000001 
lfingers 7.1250200000000001 
lthumb 5.55159 26.579499999999999 
rclavicle -4.8105900000000003e-014 7.1562500000000004e-014 
rhumerus -35.295299999999997 -29.500900000000001 -81.518900000000002 
rradius 19.190999999999999 
rwrist 18.2685 
rhand -5.4302599999999996 10.897399999999999 
rfingers 7.1250200000000001 
rthumb 20.379999999999999 -18.0532 
88
root -6.992775 8.2783350000000002 -7.9542900000000012 181.99600000000001 17.299499999999998 536.57399999999996 
lfemur 24.312799999999999 9.0618599999999994 -12.3072 
ltibia 12.172499999999999 
lfoot -4.0097500000000004 -2.4295200000000001 
ltoes -37.073799999999999 
rfemur -41.955500000000001 -14.565300000000001 22.633800000000001 
rtibia 41.270899999999997 
rfoot -4.4226299999999998 1.81257 
rtoes 1.01302 
lowerback -2.6340499999999998 -5.6926500000000004 -6.20024 
upperback 7.5493600000000001 -6.5261800000000001 -2.5283099999999998 
thorax 9.9405400000000004 -3.3336000000000001 0.0124104 
lowerneck 7.0260499999999997 -17.073599999999999 -2.3514200000000001 
upperneck 4.2530799999999997 -23.0047 16.357600000000001 
head 2.36687 -11.318300000000001 4.8821199999999996 
lclavicle -2.4848100000000001e-014 1.1131899999999999e-014 
lhumerus -31.109300000000001 4.05708 78.070099999999996 
lradius 27.647200000000002 
lwrist -16.490400000000001 
lhand -20.9041 -3.2271100000000001 
lfingers 7.1250200000000001 
lthumb 5.4668999999999999 26.682400000000001 
rclavicle -2.4848100000000001e-014 1.1131899999999999e-014 
rhumerus -35.496600000000001 -30.1753 -81.059399999999997 
rradius 18.784300000000002 
rwrist 19.055 
rhand -5.1059299999999999 10.895200000000001 
rfingers 7.1250200000000001 
rthumb 20.691600000000001 -18.021799999999999 
89
root -6.9457500000000003 8.284815 -8.0156700000000001 181.84999999999999 17.905999999999999 536.76999999999998 
lfemur 23.422499999999999 8.7551000000000005 -11.928100000000001 
ltibia 14.997299999999999 
lfoot -2.99031 -2.5054699999999999 
ltoes -35.782299999999999 
rfemur -41.353099999999998 -14.0116 22.902000000000001 
rtibia 41.601599999999998 
rfoot -4.7869200000000003 1.9698 
rtoes 0.78739099999999995 
lowerback -2.4530699999999999 -5.6200400000000004 -5.8847500000000004 
upperback 7.5415400000000004 -6.48611 -2.4157500000000001 
thorax 9.7908899999999992 -3.3002600000000002 -0.012627899999999999 
lowerneck 7.1332500000000003 -17.116599999999998 -2.40598 
upperneck 4.1737099999999998 -23.0534 16.356000000000002 
head 2.33717 -11.354799999999999 4.8986799999999997 
lclavicle -9.6410599999999996e-014 1.4312499999999999e-014 
lhumerus -31.4038 4.0762299999999998 78.238900000000001 
lradius 27.0915 
lwrist -16.756399999999999 
lhand -20.84 -3.19482 
lfingers 7.1250200000000001 
lthumb 5.5288300000000001 26.713100000000001 
rclavicle -9.6410599999999996e-014 1.4312499999999999e-014 
rhumerus -35.673200000000001 -30.6967 -80.736800000000002 
rradius 18.494599999999998 
rwrist 19.6983 
rhand -4.7561400000000003 10.744300000000001 
rfingers 7.1250200000000001 
rthumb 21.027699999999999 -18.1357 
90
root -6.8974200000000003 8.2934549999999998 -8.0761050000000001 181.679 18.520600000000002 536.99000000000001 
lfemur 22.4117 8.2266700000000004 -11.664899999999999 
ltibia 17.9434 
lfoot -1.7047099999999999 -2.1529199999999999 
ltoes -34.758000000000003 
rfemur -40.651200000000003 -13.4885 23.209599999999998 
rtibia 41.860199999999999 
rfoot -5.1759199999999996 2.15219 
rtoes 0.54169699999999998 
lowerback -2.27644 -5.5463100000000001 -5.5580999999999996 
upperback 7.6014799999999996 -6.4287000000000001 -2.3405800000000001 
thorax 9.7137100000000007 -3.2535599999999998 -0.086915599999999996 
lowerneck 7.1502600000000003 -17.155799999999999 -2.3085900000000001 
upperneck 4.0874899999999998 -23.0855 16.321999999999999 
head 2.2974199999999998 -11.3767 4.8822400000000004 
lclavicle 3.91606e-014 -6.3611099999999997e-015 
lhumerus -31.553799999999999 4.0963900000000004 78.349400000000003 
lradius 26.495799999999999 
lwrist -17.0594 
lhand -20.8033 -3.2355200000000002 
lfingers 7.1250200000000001 
lthumb 5.5642500000000004 26.671399999999998 
rclavicle 3.91606e-014 -6.3611099999999997e-015 
rhumerus -35.68 -31.157 -80.638900000000007 
rradius 18.2471 
rwrist 20.265899999999998 
rhand -4.367 10.5084 
rfingers 7.1250200000000001 
rthumb 21.401499999999999 -18.329599999999999 
